<?xml version="1.0" encoding="UTF-8" standalone="no"?>
<!-- Generator: Adobe Illustrator 14.0.0, SVG Export Plug-In . SVG Version: 6.00 Build 43363)  -->

<svg
   xmlns:dc="http://purl.org/dc/elements/1.1/"
   xmlns:cc="http://creativecommons.org/ns#"
   xmlns:rdf="http://www.w3.org/1999/02/22-rdf-syntax-ns#"
   xmlns:svg="http://www.w3.org/2000/svg"
   xmlns="http://www.w3.org/2000/svg"
   xmlns:sodipodi="http://sodipodi.sourceforge.net/DTD/sodipodi-0.dtd"
   xmlns:inkscape="http://www.inkscape.org/namespaces/inkscape"
   version="1.1"
   id="Main"
   x="0px"
   y="0px"
   width="503.25284"
   height="753.50659"
   viewBox="0 0 503.25284 753.50657"
   enable-background="new 0 0 559.93 796.9"
   xml:space="preserve"
   inkscape:version="0.48.5 r10040"
   sodipodi:docname="Keep_Calm_and_Carry_On_Poster.svg"><metadata
     id="metadata107"><rdf:RDF><cc:Work
         rdf:about=""><dc:format>image/svg+xml</dc:format><dc:type
           rdf:resource="http://purl.org/dc/dcmitype/StillImage" /><dc:title></dc:title></cc:Work></rdf:RDF></metadata><defs
     id="defs105" /><sodipodi:namedview
     pagecolor="#ffffff"
     bordercolor="#666666"
     borderopacity="1"
     objecttolerance="10"
     gridtolerance="10"
     guidetolerance="10"
     inkscape:pageopacity="0"
     inkscape:pageshadow="2"
     inkscape:window-width="1440"
     inkscape:window-height="801"
     id="namedview103"
     showgrid="false"
     inkscape:zoom="0.92928359"
     inkscape:cx="176.14703"
     inkscape:cy="307.56329"
     inkscape:window-x="0"
     inkscape:window-y="0"
     inkscape:window-maximized="1"
     inkscape:current-layer="Main"
     fit-margin-top="0"
     fit-margin-left="0"
     fit-margin-right="0"
     fit-margin-bottom="0" /><g
     style="font-size:100px;font-style:normal;font-variant:normal;font-weight:bold;font-stretch:normal;text-align:center;line-height:125%;letter-spacing:0px;word-spacing:0px;writing-mode:lr-tb;text-anchor:middle;fill:none;fill-opacity:1;stroke:#ff0000;stroke-width:0.35433071;stroke-opacity:1;font-family:Arial;-inkscape-font-specification:Keep Calm Bold;stroke-miterlimit:4;stroke-dasharray:none"
     id="text3041"><path
       d="m 193.6858,577.14417 -15.2,0 0,-53.4 -25.2,42.5 -24.2,-42.9 0,53.8 -15.2,0 0,-80 17.5,0 22.2,39.7 23.2,-39.7 16.9,0 0,80"
       style="fill:none;stroke:#ff0000;font-family:Keep Calm;-inkscape-font-specification:Keep Calm Bold;stroke-opacity:1;stroke-width:0.35433071;stroke-miterlimit:4;stroke-dasharray:none"
       id="path3827" /><path
       d="m 289.50768,577.14417 -17,0 -7.4,-16 -38.8,0 -7.5,16 -17,0 37.8,-80 12.1,0 37.8,80 m -30.5,-28.9 -13.3,-28.8 -13.5,28.8 26.8,0"
       style="fill:none;stroke:#ff0000;font-family:Keep Calm;-inkscape-font-specification:Keep Calm Bold;stroke-opacity:1;stroke-width:0.35433071;stroke-miterlimit:4;stroke-dasharray:none"
       id="path3829" /><path
       d="m 365.17955,577.14417 -20.2,0 -32,-35.4 0,35.4 -15.5,0 0,-80 15.5,0 0,35.7 32.7,-35.7 18.4,0 -36.1,39.3 37.2,40.7"
       style="fill:none;stroke:#ff0000;font-family:Keep Calm;-inkscape-font-specification:Keep Calm Bold;stroke-opacity:1;stroke-width:0.35433071;stroke-miterlimit:4;stroke-dasharray:none"
       id="path3831" /><path
       d="m 424.88893,577.14417 -52.8,0 0,-79.9 52.8,0 0,12.8 -37.6,0 0,19.1 37.1,0 0,12.5 -37.1,0 0,22 37.6,0 0,13.5"
       style="fill:none;stroke:#ff0000;font-family:Keep Calm;-inkscape-font-specification:Keep Calm Bold;stroke-opacity:1;stroke-width:0.35433071;stroke-miterlimit:4;stroke-dasharray:none"
       id="path3833" /><path
       d="m 128.1608,636.04417 -22.1,0 0,66.1 -15.699997,0 0,-66.1 -22.1,0 0,-13.8 59.899997,0 0,13.8"
       style="fill:none;stroke:#ff0000;font-family:Keep Calm;-inkscape-font-specification:Keep Calm Bold;stroke-opacity:1;stroke-width:0.35433071;stroke-miterlimit:4;stroke-dasharray:none"
       id="path3835" /><path
       d="m 200.60455,702.14417 -15.5,0 0,-35.4 -31.5,0 0,35.4 -15.5,0 0,-79.9 15.5,0 0,31.7 31.5,0 0,-31.7 15.5,0 0,79.9"
       style="fill:none;stroke:#ff0000;font-family:Keep Calm;-inkscape-font-specification:Keep Calm Bold;stroke-opacity:1;stroke-width:0.35433071;stroke-miterlimit:4;stroke-dasharray:none"
       id="path3837" /><path
       d="m 231.14362,702.14417 -15.5,0 0,-79.9 15.5,0 0,79.9"
       style="fill:none;stroke:#ff0000;font-family:Keep Calm;-inkscape-font-specification:Keep Calm Bold;stroke-opacity:1;stroke-width:0.35433071;stroke-miterlimit:4;stroke-dasharray:none"
       id="path3839" /><path
       d="m 312.61237,702.14417 -15.2,0 -36.1,-56.1 0,56.1 -15.2,0 0,-80 17.4,0 33.9,52.2 0,-52.2 15.2,0 0,80"
       style="fill:none;stroke:#ff0000;font-family:Keep Calm;-inkscape-font-specification:Keep Calm Bold;stroke-opacity:1;stroke-width:0.35433071;stroke-miterlimit:4;stroke-dasharray:none"
       id="path3841" /><path
       d="m 401.35299,687.44417 c -2.26675,2.80001 -4.73341,5.23334 -7.4,7.3 -2.66674,2 -5.46673,3.66667 -8.4,5 -2.86673,1.33333 -5.83339,2.3 -8.9,2.9 -3.00005,0.66666 -6.00005,0.99999 -9,1 -5.93337,-10e-6 -11.50004,-1.06667 -16.7,-3.2 -5.20003,-2.13333 -9.73335,-5.06666 -13.6,-8.8 -3.86668,-3.73332 -6.93334,-8.13332 -9.2,-13.2 -2.26667,-5.06664 -3.4,-10.5333 -3.4,-16.4 0,-5.73329 1.09999,-11.09995 3.3,-16.1 2.26666,-5.06661 5.33332,-9.46661 9.2,-13.2 3.93331,-3.73327 8.49997,-6.6666 13.7,-8.8 5.19996,-2.19992 10.76663,-3.29992 16.7,-3.3 6.86661,8e-5 13.09994,1.40008 18.7,4.2 5.6666,2.80007 10.46659,6.5334 14.4,11.2 l -10.5,10.7 c -3.00007,-4.06661 -6.36673,-6.96661 -10.1,-8.7 -3.73339,-1.79994 -7.90005,-2.69994 -12.5,-2.7 -3.80004,6e-5 -7.36671,0.70006 -10.7,2.1 -3.33337,1.40006 -6.2667,3.33339 -8.8,5.8 -2.46669,2.40005 -4.43336,5.23338 -5.9,8.5 -1.40002,3.20004 -2.10002,6.63337 -2.1,10.3 -2e-5,3.73336 0.69998,7.23336 2.1,10.5 1.46664,3.20002 3.43331,6.03335 5.9,8.5 2.5333,2.46668 5.46663,4.40001 8.8,5.8 3.33329,1.40001 6.89996,2.10001 10.7,2.1 3.59995,10e-6 6.99995,-0.66666 10.2,-2 3.19994,-1.33332 6.0666,-3.09999 8.6,-5.3 l 0,-7.7 -16.4,0 0,-13.2 31.3,0 0,26.7"
       style="fill:none;stroke:#ff0000;font-family:Keep Calm;-inkscape-font-specification:Keep Calm Bold;stroke-opacity:1;stroke-width:0.35433071;stroke-miterlimit:4;stroke-dasharray:none"
       id="path3843" /><path
       d="m 466.69987,681.14417 c -7e-5,3.00001 -0.66673,5.86668 -2,8.6 -1.26673,2.66667 -3.06673,5.03334 -5.4,7.1 -2.33339,2.06666 -5.10005,3.73333 -8.3,5 -3.20005,1.19999 -6.73338,1.79999 -10.6,1.8 -3.4667,-10e-6 -6.60003,-0.20001 -9.4,-0.6 -2.73336,-0.40001 -5.33336,-1.03334 -7.8,-1.9 -2.40002,-0.86667 -4.73335,-1.96667 -7,-3.3 -2.20001,-1.4 -4.50001,-3.06666 -6.9,-5 l 11,-11.1 c 3.19998,2.66668 6.33331,4.56668 9.4,5.7 3.06663,1.06668 6.39996,1.60001 10,1.6 1.46663,10e-6 2.83329,-0.19999 4.1,-0.6 1.33329,-0.46666 2.46662,-1.06666 3.4,-1.8 0.99995,-0.73332 1.76662,-1.59999 2.3,-2.6 0.59995,-0.99999 0.89995,-2.09998 0.9,-3.3 -5e-5,-1.26665 -0.23338,-2.39998 -0.7,-3.4 -0.46671,-0.99998 -1.30005,-1.96664 -2.5,-2.9 -1.20004,-0.93331 -2.86671,-1.86664 -5,-2.8 -2.13337,-0.99997 -4.8667,-2.09997 -8.2,-3.3 -2.93336,-1.06664 -5.76669,-2.26664 -8.5,-3.6 -2.66669,-1.39997 -5.03335,-3.06663 -7.1,-5 -2.00002,-1.93329 -3.63335,-4.19996 -4.9,-6.8 -1.20001,-2.59995 -1.80001,-5.66662 -1.8,-9.2 -10e-6,-3.39994 0.66666,-6.53327 2,-9.4 1.39999,-2.8666 3.26665,-5.29993 5.6,-7.3 2.39998,-2.06659 5.16664,-3.66659 8.3,-4.8 3.19997,-1.13326 6.6333,-1.69992 10.3,-1.7 6.13329,8e-5 11.29995,0.80008 15.5,2.4 4.19994,1.60007 7.93327,3.9334 11.2,7 l -10.8,10.9 c -2.00005,-1.93328 -4.23338,-3.39994 -6.7,-4.4 -2.46671,-1.0666 -5.36671,-1.59994 -8.7,-1.6 -1.53337,6e-5 -2.9667,0.2334 -4.3,0.7 -1.2667,0.46673 -2.3667,1.10006 -3.3,1.9 -0.93336,0.73339 -1.70003,1.63339 -2.3,2.7 -0.53336,1.00006 -0.80003,2.06672 -0.8,3.2 -3e-5,1.26672 0.26664,2.43338 0.8,3.5 0.53331,1.00005 1.4333,2.00005 2.7,3 1.26664,0.93338 2.9333,1.90005 5,2.9 2.1333,0.93338 4.76663,1.96671 7.9,3.1 3.99995,1.40004 7.43328,2.93337 10.3,4.6 2.86661,1.6667 5.19994,3.50003 7,5.5 1.79994,2.00003 3.13327,4.26669 4,6.8 0.8666,2.46669 1.29993,5.26669 1.3,8.4"
       style="fill:none;stroke:#ff0000;font-family:Keep Calm;-inkscape-font-specification:Keep Calm Bold;stroke-opacity:1;stroke-width:0.35433071;stroke-miterlimit:4;stroke-dasharray:none"
       id="path3845" /></g><rect
     y="-1.7418995e-05"
     x="0"
     width="503.25284"
     height="753.50659"
     id="rect3"
     style="fill:none;stroke:#ff0000;stroke-opacity:1;stroke-width:0.35433071;stroke-miterlimit:4;stroke-dasharray:none" /><g
     id="g5"
     transform="matrix(0.80084746,0,0,0.7973667,33.263311,4.2910012)"
     style="stroke:#ff0000;stroke-opacity:1;stroke-width:0.44340935;stroke-miterlimit:4;stroke-dasharray:none;fill:none"><path
       d="m 363.708,108 -14.125,-3.75 5.5,12.625 -8.125,-6.125 -4.5,21.5 10.25,-6.125 c -8,25 -24.625,15.875 -24.625,15.875 -10.75,-3.25 -9.875,-19.625 -1.125,-19.625 8.75,0 6.875,12.875 6.875,12.875 5.5,-1.125 12.063,-14.187 4.25,-22 -7.125,-7.125 -15,-2 -15,-2 6.375,-15.125 -1.75,-23.25 -1.75,-23.25 -12,8.375 -8.875,22.125 -8.875,22.125 0,0 -3.212,-4.294 -9.207,-3.931 -5.043,0.306 -8.471,6.056 -8.443,10.931 0.036,6.769 6.9,10.625 6.9,10.625 0,0 -0.75,-3.375 1,-6.375 2.476,-4.243 11.036,-2.748 10.375,6.625 -0.688,9.75 -11.25,10.75 -15.625,10.75 -4.502,0 -9.188,-3.312 -11.125,-6 -3.359,-4.661 -4,-10.625 -4,-10.625 l 8.75,4.75 -0.5,-20.875 -8.25,6.125 4.25,-15.125 h -4.208 -7.667 -4.208 l 4.25,15.125 -8.25,-6.125 -0.5,20.875 8.75,-4.75 c 0,0 -0.64,5.964 -4,10.625 -1.938,2.688 -6.623,6 -11.125,6 -4.375,0 -14.938,-1 -15.625,-10.75 -0.661,-9.373 7.9,-10.868 10.375,-6.625 1.75,3 1,6.375 1,6.375 0,0 6.865,-3.856 6.901,-10.625 0.026,-4.875 -3.401,-10.625 -8.444,-10.931 -5.995,-0.363 -9.207,3.931 -9.207,3.931 0,0 3.125,-13.75 -8.875,-22.125 0,0 -8.125,8.125 -1.75,23.25 0,0 -7.875,-5.125 -15,2 -7.813,7.813 -1.25,20.875 4.25,22 0,0 -1.875,-12.875 6.875,-12.875 8.75,0 9.625,16.375 -1.125,19.625 0,0 -16.625,9.125 -24.625,-15.875 l 10.25,6.125 -4.5,-21.5 -8.125,6.125 5.5,-12.625 -14.125,3.75 c 0,0 3.5,8.375 2.875,10.625 -0.625,2.25 -1.569,5.168 -0.944,7.543 0.625,2.375 2.694,4.207 4.069,5.457 1.375,1.25 3.25,9.875 3.625,11.375 0.375,1.5 2.125,8.625 -0.625,19.625 l 11.375,10.75 c 0,0 21.125,-10.5 64.5,-10.625 h 0.583 c 43.375,0.125 64.5,10.625 64.5,10.625 l 11.375,-10.75 c -2.75,-11 -1,-18.125 -0.625,-19.625 0.375,-1.5 2.25,-10.125 3.625,-11.375 1.375,-1.25 3.445,-3.082 4.07,-5.457 0.625,-2.375 -0.32,-5.293 -0.945,-7.543 -0.625,-2.25 2.875,-10.625 2.875,-10.625 z m -163.675,20.153 -2.655,-2.486 0.985,-3.487 2.655,2.486 -0.985,3.487 z m 10.454,36.511 -4.099,-3.838 1.521,-5.385 4.1,3.838 -1.522,5.385 z M 220.25,152.5 c 0,-1.243 1.007,-2.25 2.25,-2.25 1.243,0 2.25,1.007 2.25,2.25 0,1.243 -1.007,2.25 -2.25,2.25 -1.243,0 -2.25,-1.007 -2.25,-2.25 z M 224,164 c -1.243,0 -2.25,-1.007 -2.25,-2.25 0,-1.243 1.007,-2.25 2.25,-2.25 1.243,0 2.25,1.007 2.25,2.25 0,1.243 -1.007,2.25 -2.25,2.25 z m 20.249,-5.5 c -5.275,0.82 -10.036,-1.631 -10.633,-5.474 -0.598,-3.843 3.194,-7.623 8.471,-8.442 5.274,-0.82 10.034,1.631 10.632,5.475 0.597,3.842 -3.195,7.622 -8.47,8.441 z m 14.501,-12.75 c 0,-1.243 1.007,-2.25 2.25,-2.25 1.243,0 2.25,1.007 2.25,2.25 0,1.243 -1.007,2.25 -2.25,2.25 -1.243,0 -2.25,-1.007 -2.25,-2.25 z m 3.5,11.94 c -1.243,0 -2.25,-1.007 -2.25,-2.25 0,-1.243 1.007,-2.25 2.25,-2.25 1.243,0 2.25,1.007 2.25,2.25 0,1.243 -1.007,2.25 -2.25,2.25 z m 16.292,-42.093 c 0.867,0 1.569,0.703 1.569,1.57 0,0.867 -0.702,1.57 -1.569,1.57 -0.867,0 -1.569,-0.703 -1.569,-1.57 0,-0.867 0.701,-1.57 1.569,-1.57 z m 0.043,40.748 -4.406,-7.155 4.314,-7.175 4.409,7.154 -4.317,7.176 z m 16.248,1.345 c -1.242,0 -2.25,-1.007 -2.25,-2.25 0,-1.243 1.008,-2.25 2.25,-2.25 1.243,0 2.25,1.007 2.25,2.25 0,1.243 -1.007,2.25 -2.25,2.25 z m 1.25,-9.69 c -1.242,0 -2.25,-1.007 -2.25,-2.25 0,-1.243 1.008,-2.25 2.25,-2.25 1.243,0 2.25,1.007 2.25,2.25 0,1.243 -1.007,2.25 -2.25,2.25 z m 27.385,5.027 c -0.597,3.843 -5.357,6.294 -10.633,5.474 -5.275,-0.819 -9.067,-4.6 -8.47,-8.441 0.598,-3.844 5.357,-6.295 10.632,-5.475 5.276,0.819 9.068,4.599 8.471,8.442 z M 333.083,164 c -1.242,0 -2.25,-1.007 -2.25,-2.25 0,-1.243 1.008,-2.25 2.25,-2.25 1.243,0 2.25,1.007 2.25,2.25 0,1.243 -1.007,2.25 -2.25,2.25 z m 1.5,-9.25 c -1.242,0 -2.25,-1.007 -2.25,-2.25 0,-1.243 1.008,-2.25 2.25,-2.25 1.243,0 2.25,1.007 2.25,2.25 0,1.243 -1.007,2.25 -2.25,2.25 z m 12.014,9.914 -1.521,-5.386 4.1,-3.838 1.521,5.385 -4.1,3.839 z m 10.453,-36.511 -0.984,-3.487 2.655,-2.486 0.985,3.487 -2.656,2.486 z"
       id="path7"
       inkscape:connector-curvature="0"
       style="fill:none;stroke:#ff0000;stroke-opacity:1;stroke-width:0.44340935;stroke-miterlimit:4;stroke-dasharray:none" /><ellipse
       cx="278.54501"
       cy="176.875"
       rx="60.877998"
       ry="10.375"
       id="ellipse9"
       d="m 339.42301,176.875 c 0,5.72995 -27.25601,10.375 -60.878,10.375 -33.62199,0 -60.87799,-4.64505 -60.87799,-10.375 0,-5.72995 27.256,-10.375 60.87799,-10.375 33.62199,0 60.878,4.64505 60.878,10.375 z"
       sodipodi:cx="278.54501"
       sodipodi:cy="176.875"
       sodipodi:rx="60.877998"
       sodipodi:ry="10.375"
       style="fill:none;stroke:#ff0000;stroke-opacity:1;stroke-width:0.44340935;stroke-miterlimit:4;stroke-dasharray:none" /><g
       id="g11"
       style="stroke:#ff0000;stroke-opacity:1;stroke-width:0.44340935;stroke-miterlimit:4;stroke-dasharray:none;fill:none"><path
         d="m 212.661,103.163 -2.654,-2.992 c 29.671,-26.319 55.127,-28.263 56.197,-28.333 l 1.284,-0.084 0.609,1.133 c 4.97,9.254 6.021,20.462 6.063,20.935 l -3.984,0.357 c -0.01,-0.103 -0.937,-9.905 -4.99,-18.201 -5.457,0.764 -27.634,5.105 -52.525,27.185 l 0,0 z"
         id="path13"
         inkscape:connector-curvature="0"
         style="fill:none;stroke:#ff0000;stroke-opacity:1;stroke-width:0.44340935;stroke-miterlimit:4;stroke-dasharray:none" /></g><circle
       cx="262.5"
       cy="66"
       r="4.3330002"
       id="circle15"
       d="m 266.833,66 c 0,2.39305 -1.93995,4.333 -4.333,4.333 -2.39305,0 -4.333,-1.93995 -4.333,-4.333 0,-2.39305 1.93995,-4.333 4.333,-4.333 2.39305,0 4.333,1.93995 4.333,4.333 z"
       sodipodi:cx="262.5"
       sodipodi:cy="66"
       sodipodi:rx="4.3330002"
       sodipodi:ry="4.3330002"
       style="fill:none;stroke:#ff0000;stroke-opacity:1;stroke-width:0.44340935;stroke-miterlimit:4;stroke-dasharray:none" /><circle
       cx="251.334"
       cy="68.834"
       r="4.0549998"
       id="circle17"
       d="m 255.389,68.834 c 0,2.239514 -1.81549,4.054999 -4.055,4.054999 -2.23951,0 -4.055,-1.815485 -4.055,-4.054999 0,-2.239515 1.81549,-4.055 4.055,-4.055 2.23951,0 4.055,1.815485 4.055,4.055 z"
       sodipodi:cx="251.334"
       sodipodi:cy="68.834"
       sodipodi:rx="4.0549998"
       sodipodi:ry="4.0549998"
       style="fill:none;stroke:#ff0000;stroke-opacity:1;stroke-width:0.44340935;stroke-miterlimit:4;stroke-dasharray:none" /><circle
       cx="241.00101"
       cy="72.889999"
       r="3.7780001"
       id="circle19"
       d="m 244.77901,72.889999 c 0,2.086532 -1.69147,3.778001 -3.778,3.778001 -2.08653,0 -3.778,-1.691469 -3.778,-3.778001 0,-2.086531 1.69147,-3.778 3.778,-3.778 2.08653,0 3.778,1.691469 3.778,3.778 z"
       sodipodi:cx="241.00101"
       sodipodi:cy="72.889999"
       sodipodi:rx="3.7780001"
       sodipodi:ry="3.7780001"
       style="fill:none;stroke:#ff0000;stroke-opacity:1;stroke-width:0.44340935;stroke-miterlimit:4;stroke-dasharray:none" /><circle
       cx="231.83299"
       cy="77.500999"
       r="3.5"
       id="circle21"
       d="m 235.33299,77.500999 c 0,1.932997 -1.567,3.5 -3.5,3.5 -1.93299,0 -3.5,-1.567003 -3.5,-3.5 0,-1.932996 1.56701,-3.5 3.5,-3.5 1.933,0 3.5,1.567004 3.5,3.5 z"
       sodipodi:cx="231.83299"
       sodipodi:cy="77.500999"
       sodipodi:rx="3.5"
       sodipodi:ry="3.5"
       style="fill:none;stroke:#ff0000;stroke-opacity:1;stroke-width:0.44340935;stroke-miterlimit:4;stroke-dasharray:none" /><circle
       cx="222.834"
       cy="83.333"
       r="3.2219999"
       id="circle23"
       d="m 226.056,83.333 c 0,1.779462 -1.44254,3.222 -3.222,3.222 -1.77946,0 -3.222,-1.442538 -3.222,-3.222 0,-1.779461 1.44254,-3.222 3.222,-3.222 1.77946,0 3.222,1.442539 3.222,3.222 z"
       sodipodi:cx="222.834"
       sodipodi:cy="83.333"
       sodipodi:rx="3.2219999"
       sodipodi:ry="3.2219999"
       style="fill:none;stroke:#ff0000;stroke-opacity:1;stroke-width:0.44340935;stroke-miterlimit:4;stroke-dasharray:none" /><circle
       cx="214.722"
       cy="89.5"
       r="2.9449999"
       id="circle25"
       d="m 217.667,89.5 c 0,1.626479 -1.31852,2.945 -2.945,2.945 -1.62648,0 -2.945,-1.318521 -2.945,-2.945 0,-1.626479 1.31852,-2.945 2.945,-2.945 1.62648,0 2.945,1.318521 2.945,2.945 z"
       sodipodi:cx="214.722"
       sodipodi:cy="89.5"
       sodipodi:rx="2.9449999"
       sodipodi:ry="2.9449999"
       style="fill:none;stroke:#ff0000;stroke-opacity:1;stroke-width:0.44340935;stroke-miterlimit:4;stroke-dasharray:none" /><circle
       cx="208.444"
       cy="95.834"
       r="2.6670001"
       id="circle27"
       d="m 211.111,95.834 c 0,1.472943 -1.19406,2.667 -2.667,2.667 -1.47294,0 -2.667,-1.194057 -2.667,-2.667 0,-1.472944 1.19406,-2.667 2.667,-2.667 1.47294,0 2.667,1.194056 2.667,2.667 z"
       sodipodi:cx="208.444"
       sodipodi:cy="95.834"
       sodipodi:rx="2.6670001"
       sodipodi:ry="2.6670001"
       style="fill:none;stroke:#ff0000;stroke-opacity:1;stroke-width:0.44340935;stroke-miterlimit:4;stroke-dasharray:none" /><g
       id="g29"
       style="stroke:#ff0000;stroke-opacity:1;stroke-width:0.44340935;stroke-miterlimit:4;stroke-dasharray:none;fill:none"><path
         d="m 344.689,103.163 2.654,-2.992 C 317.673,73.852 292.216,71.908 291.146,71.838 l -1.283,-0.084 -0.609,1.133 c -4.969,9.254 -6.02,20.462 -6.062,20.935 l 3.984,0.357 c 0.01,-0.103 0.936,-9.905 4.988,-18.201 5.457,0.764 27.635,5.105 52.525,27.185 l 0,0 z"
         id="path31"
         inkscape:connector-curvature="0"
         style="fill:none;stroke:#ff0000;stroke-opacity:1;stroke-width:0.44340935;stroke-miterlimit:4;stroke-dasharray:none" /></g><circle
       cx="294.85101"
       cy="66"
       r="4.3330002"
       id="circle33"
       d="m 299.18401,66 c 0,2.39305 -1.93995,4.333 -4.333,4.333 -2.39305,0 -4.333,-1.93995 -4.333,-4.333 0,-2.39305 1.93995,-4.333 4.333,-4.333 2.39305,0 4.333,1.93995 4.333,4.333 z"
       sodipodi:cx="294.85101"
       sodipodi:cy="66"
       sodipodi:rx="4.3330002"
       sodipodi:ry="4.3330002"
       style="fill:none;stroke:#ff0000;stroke-opacity:1;stroke-width:0.44340935;stroke-miterlimit:4;stroke-dasharray:none" /><circle
       cx="306.017"
       cy="68.834"
       r="4.0560002"
       id="circle35"
       d="m 310.073,68.834 c 0,2.240067 -1.81593,4.056 -4.056,4.056 -2.24007,0 -4.056,-1.815933 -4.056,-4.056 0,-2.240067 1.81593,-4.056001 4.056,-4.056001 2.24007,0 4.056,1.815934 4.056,4.056001 z"
       sodipodi:cx="306.017"
       sodipodi:cy="68.834"
       sodipodi:rx="4.0560002"
       sodipodi:ry="4.0560002"
       style="fill:none;stroke:#ff0000;stroke-opacity:1;stroke-width:0.44340935;stroke-miterlimit:4;stroke-dasharray:none" /><circle
       cx="316.35001"
       cy="72.889999"
       r="3.777"
       id="circle37"
       d="m 320.12701,72.889999 c 0,2.08598 -1.69102,3.777 -3.777,3.777 -2.08598,0 -3.777,-1.69102 -3.777,-3.777 0,-2.085979 1.69102,-3.777 3.777,-3.777 2.08598,0 3.777,1.691021 3.777,3.777 z"
       sodipodi:cx="316.35001"
       sodipodi:cy="72.889999"
       sodipodi:rx="3.777"
       sodipodi:ry="3.777"
       style="fill:none;stroke:#ff0000;stroke-opacity:1;stroke-width:0.44340935;stroke-miterlimit:4;stroke-dasharray:none" /><circle
       cx="278.53799"
       cy="75.160004"
       r="3.777"
       id="circle39"
       d="m 282.31499,75.160004 c 0,2.085979 -1.69102,3.777 -3.777,3.777 -2.08598,0 -3.777,-1.691021 -3.777,-3.777 0,-2.08598 1.69102,-3.777 3.777,-3.777 2.08598,0 3.777,1.69102 3.777,3.777 z"
       sodipodi:cx="278.53799"
       sodipodi:cy="75.160004"
       sodipodi:rx="3.777"
       sodipodi:ry="3.777"
       style="fill:none;stroke:#ff0000;stroke-opacity:1;stroke-width:0.44340935;stroke-miterlimit:4;stroke-dasharray:none" /><circle
       cx="325.51801"
       cy="77.500999"
       r="3.5"
       id="circle41"
       d="m 329.01801,77.500999 c 0,1.932997 -1.56701,3.5 -3.5,3.5 -1.933,0 -3.5,-1.567003 -3.5,-3.5 0,-1.932996 1.567,-3.5 3.5,-3.5 1.93299,0 3.5,1.567004 3.5,3.5 z"
       sodipodi:cx="325.51801"
       sodipodi:cy="77.500999"
       sodipodi:rx="3.5"
       sodipodi:ry="3.5"
       style="fill:none;stroke:#ff0000;stroke-opacity:1;stroke-width:0.44340935;stroke-miterlimit:4;stroke-dasharray:none" /><circle
       cx="334.517"
       cy="83.333"
       r="3.2219999"
       id="circle43"
       d="m 337.739,83.333 c 0,1.779462 -1.44254,3.222 -3.222,3.222 -1.77946,0 -3.222,-1.442538 -3.222,-3.222 0,-1.779461 1.44254,-3.222 3.222,-3.222 1.77946,0 3.222,1.442539 3.222,3.222 z"
       sodipodi:cx="334.517"
       sodipodi:cy="83.333"
       sodipodi:rx="3.2219999"
       sodipodi:ry="3.2219999"
       style="fill:none;stroke:#ff0000;stroke-opacity:1;stroke-width:0.44340935;stroke-miterlimit:4;stroke-dasharray:none" /><circle
       cx="278.539"
       cy="84.358002"
       r="3.2219999"
       id="circle45"
       d="m 281.761,84.358002 c 0,1.779461 -1.44254,3.222 -3.222,3.222 -1.77946,0 -3.222,-1.442539 -3.222,-3.222 0,-1.779462 1.44254,-3.222 3.222,-3.222 1.77946,0 3.222,1.442538 3.222,3.222 z"
       sodipodi:cx="278.539"
       sodipodi:cy="84.358002"
       sodipodi:rx="3.2219999"
       sodipodi:ry="3.2219999"
       style="fill:none;stroke:#ff0000;stroke-opacity:1;stroke-width:0.44340935;stroke-miterlimit:4;stroke-dasharray:none" /><circle
       cx="342.62799"
       cy="89.5"
       r="2.944"
       id="circle47"
       d="m 345.57199,89.5 c 0,1.625926 -1.31807,2.944 -2.944,2.944 -1.62593,0 -2.944,-1.318074 -2.944,-2.944 0,-1.625926 1.31807,-2.944 2.944,-2.944 1.62593,0 2.944,1.318074 2.944,2.944 z"
       sodipodi:cx="342.62799"
       sodipodi:cy="89.5"
       sodipodi:rx="2.944"
       sodipodi:ry="2.944"
       style="fill:none;stroke:#ff0000;stroke-opacity:1;stroke-width:0.44340935;stroke-miterlimit:4;stroke-dasharray:none" /><circle
       cx="348.90701"
       cy="95.834"
       r="2.6670001"
       id="circle49"
       d="m 351.57401,95.834 c 0,1.472943 -1.19405,2.667 -2.667,2.667 -1.47294,0 -2.667,-1.194057 -2.667,-2.667 0,-1.472944 1.19406,-2.667 2.667,-2.667 1.47295,0 2.667,1.194056 2.667,2.667 z"
       sodipodi:cx="348.90701"
       sodipodi:cy="95.834"
       sodipodi:rx="2.6670001"
       sodipodi:ry="2.6670001"
       style="fill:none;stroke:#ff0000;stroke-opacity:1;stroke-width:0.44340935;stroke-miterlimit:4;stroke-dasharray:none" /><circle
       cx="278.539"
       cy="92.445"
       r="2.6670001"
       id="circle51"
       d="m 281.206,92.445 c 0,1.472943 -1.19406,2.667 -2.667,2.667 -1.47294,0 -2.667,-1.194057 -2.667,-2.667 0,-1.472944 1.19406,-2.667 2.667,-2.667 1.47294,0 2.667,1.194056 2.667,2.667 z"
       sodipodi:cx="278.539"
       sodipodi:cy="92.445"
       sodipodi:rx="2.6670001"
       sodipodi:ry="2.6670001"
       style="fill:none;stroke:#ff0000;stroke-opacity:1;stroke-width:0.44340935;stroke-miterlimit:4;stroke-dasharray:none" /><path
       d="M 280.69,50.537 V 45 l 7.027,3.076 V 35.667 l -7.121,4.167 4.379,-9.917 H 272.1 l 4.379,9.917 -7.122,-4.167 V 48.076 L 276.385,45 v 5.537 c -4.161,0.975 -7.263,4.702 -7.263,9.16 0,5.2 4.215,9.416 9.416,9.416 5.2,0 9.416,-4.216 9.416,-9.416 0,-4.459 -3.102,-8.185 -7.264,-9.16 z m -3.152,2.963 v 5 l -3.777,-2 3.777,-3 z m -4.379,10.092 c 0,0 5.406,-2.092 10.341,1.508 0,0 -8.059,3.993 -10.341,-1.508 z m 7.602,-5.092 v -5 l 3.739,2.5 -3.739,2.5 z"
       id="path53"
       inkscape:connector-curvature="0"
       style="fill:none;stroke:#ff0000;stroke-opacity:1;stroke-width:0.44340935;stroke-miterlimit:4;stroke-dasharray:none" /></g><polygon
     style="fill:none;stroke:#ff0000;stroke-width:0.37289995;stroke-miterlimit:4;stroke-opacity:1;stroke-dasharray:none"
     points="434.898,427.834 452,427.834 452,341.875 432.491,341.875 409.562,382.625 386.634,341.875 367.125,341.875 367.125,427.834 384.227,427.834 384.227,372.167 409.562,416.625 434.898,372.167 "
     id="polygon65"
     transform="matrix(0.96946458,0,0,0.93132447,-18.53657,-7.7058238)" /><path
     style="fill:none;stroke:#ff0000;stroke-width:0.35433072;stroke-miterlimit:4;stroke-opacity:1;stroke-dasharray:none"
     inkscape:connector-curvature="0"
     d="m 229.14127,374.52743 7.78771,16.21902 19.13529,0 -38.93273,-80.05572 -13.85752,0 -38.93273,80.05572 19.13529,0 7.78771,-16.21902 z m -31.89344,-13.65135 12.95495,-27.7544 12.95496,27.7544 z"
     id="path67"
     sodipodi:nodetypes="ccccccccccccc" /><polygon
     style="fill:none;stroke:#ff0000;stroke-width:0.37289995;stroke-miterlimit:4;stroke-opacity:1;stroke-dasharray:none"
     points="313.875,341.875 295.125,341.875 295.125,427.834 353.875,427.834 353.875,412 313.875,412 "
     id="polygon69"
     transform="matrix(0.96946458,0,0,0.93132447,-18.53657,-7.7058238)" /><path
     style="fill:none;stroke:#ff0000;stroke-width:0.35433072;stroke-miterlimit:4;stroke-opacity:1;stroke-dasharray:none"
     inkscape:connector-curvature="0"
     d="m 128.24618,376.52606 c -15.92636,0 -28.837689,-11.80361 -28.837689,-26.36394 0,-14.55939 12.911329,-26.363 28.837689,-26.363 9.75767,0 18.37814,4.43497 23.5958,11.21501 l 12.19393,-11.22805 c -8.42853,-9.54607 -21.32628,-15.65742 -35.78973,-15.65742 -25.39318,0 -45.978792,18.81927 -45.978792,42.03346 0,23.2142 20.585612,42.03347 45.978792,42.03347 14.46442,0 27.36217,-6.11135 35.78973,-15.65743 l -12.19393,-11.22804 c -5.21766,6.78097 -13.83717,11.21594 -23.5958,11.21594 z"
     id="path71"
     sodipodi:nodetypes="sssccsssccs" /><g
     id="g73"
     transform="matrix(1.0089528,0,0,0.94968292,-18.877714,-26.024014)"
     style="stroke:#ff0000;stroke-opacity:1;stroke-width:0.36197956999999997;stroke-miterlimit:4;stroke-dasharray:none;fill:none"><polygon
       id="polygon75"
       points="213,222 213,310 270.875,310 270.875,297 229.575,297 229.575,270.875 270.875,270.875 270.875,258 229.575,258 229.575,235 270.875,235 270.875,222 "
       style="fill:none;stroke:#ff0000;stroke-opacity:1;stroke-width:0.36197956999999997;stroke-miterlimit:4;stroke-dasharray:none" /><polygon
       id="polygon77"
       points="289.125,222 289.125,310 347,310 347,297 305.7,297 305.7,270.875 347,270.875 347,258 305.7,258 305.7,235 347,235 347,222 "
       style="fill:none;stroke:#ff0000;stroke-opacity:1;stroke-width:0.36197956999999997;stroke-miterlimit:4;stroke-dasharray:none" /><polygon
       id="polygon79"
       points="180.375,310 203,310 163.956,265.903 200.875,222 181.875,222 146.825,261.549 146.825,222 130.25,222 130.25,310 146.825,310 146.825,273.41 "
       style="fill:none;stroke:#ff0000;stroke-opacity:1;stroke-width:0.36197956999999997;stroke-miterlimit:4;stroke-dasharray:none" /><path
       id="path81"
       d="m 399,222 h -32.75 v 88 H 384 v -28.533 h 15 c 0,0 28,-1.456 28,-30.428 C 427,223.389 399,222 399,222 z m -5.93,46.588 H 384 v -34.594 h 9.07 c 0,0 16.93,0.809 16.93,16.893 0,16.854 -16.93,17.701 -16.93,17.701 z"
       inkscape:connector-curvature="0"
       style="fill:none;stroke:#ff0000;stroke-opacity:1;stroke-width:0.36197956999999997;stroke-miterlimit:4;stroke-dasharray:none" /></g><g
     id="g83"
     transform="matrix(0.94112167,0,0,0.91352596,-5.0430547,7.8504702)"
     style="stroke:#ff0000;stroke-opacity:1;stroke-width:0.38214261;stroke-miterlimit:4;stroke-dasharray:none;fill:none"><polygon
       id="polygon85"
       points="288.562,456.834 288.562,482.564 271.265,456.834 263.016,456.834 263.016,497.778 271.265,497.778 271.265,471.117 288.562,497.778 296.243,497.778 296.243,456.834 "
       style="fill:none;stroke:#ff0000;stroke-opacity:1;stroke-width:0.38214261;stroke-miterlimit:4;stroke-dasharray:none" /><path
       id="path87"
       d="m 245.06,489.391 3.592,8.277 8.827,0 -17.961,-40.854 -6.393,0 -17.96,40.854 8.827,0 3.593,-8.277 z m -14.713,-6.967 5.975,-14.163 5.978,14.163 z"
       inkscape:connector-curvature="0"
       style="fill:none;stroke:#ff0000;stroke-width:0.3821426;stroke-miterlimit:4;stroke-opacity:1;stroke-dasharray:none"
       sodipodi:nodetypes="ccccccccccccc" /><path
       id="path89"
       d="m 326.75,497.778 c 0,0 16.78,-2.611 16.78,-20.949 0,-16.912 -16.78,-19.995 -16.78,-19.995 l -19.626,0 -0.001,40.944 c 6.54233,0 13.08467,0 19.627,0 z m -3.554,-8.866 -6.436,0 0,-23.82 6.436,0 c 0,0 9.971,0.409 10.146,11.633 0.169,10.858 -10.146,12.187 -10.146,12.187 z"
       inkscape:connector-curvature="0"
       style="fill:none;stroke:#ff0000;stroke-width:0.3821426;stroke-miterlimit:4;stroke-opacity:1;stroke-dasharray:none"
       sodipodi:nodetypes="cscccccccccc" /></g></svg>